<?xml version="1.0" encoding="utf-8"?>
<!-- Generator: Adobe Illustrator 24.1.1, SVG Export Plug-In . SVG Version: 6.00 Build 0)  -->
<svg version="1.1" id="Layer_1" xmlns="http://www.w3.org/2000/svg" xmlns:xlink="http://www.w3.org/1999/xlink" x="0px" y="0px"
	 viewBox="0 0 428 88" style="enable-background:new 0 0 428 88;" xml:space="preserve">
<style type="text/css">
	.st0{fill:#191919;}
	.st1{fill:#FCCF3E;}
</style>
<g>
	<g>
		<path class="st0" d="M8.3,44.3c0.2-0.3,0.7-0.4,1-0.1c2.2,2.3,4.3,4,6.4,5.1c2.2,1.2,4.5,1.8,6.8,1.8c1.9,0,3.5-0.5,4.6-1.4
			c1.2-0.9,1.7-2.2,1.7-3.7c0-2.1-2.3-4.4-7-6.8c-0.4-0.2-0.8-0.4-1.1-0.6c-4.5-2.4-7.6-4.6-9.3-6.8S8.9,27,8.9,23.9
			c0-5.7,1.9-10.4,5.8-14c3.8-3.6,8.8-5.4,14.9-5.4c3.2,0,6.3,0.6,9.2,1.7c2.8,1.1,5.4,2.6,7.9,4.6c0.2,0.2,0.3,0.5,0.1,0.8l-6,10.2
			c-0.2,0.3-0.7,0.4-1,0.2c-1.8-1.5-3.5-2.7-5.1-3.5c-1.7-0.9-3.3-1.3-4.7-1.3c-1.6,0-2.9,0.5-3.9,1.4s-1.6,2-1.6,3.3
			c0,1.6,2,3.5,5.9,5.5c1.4,0.7,2.5,1.3,3.2,1.7c4,2.2,6.8,4.5,8.4,6.8c1.6,2.3,2.4,5.2,2.4,8.7c0,6.2-2.1,11.1-6.4,14.8
			c-4.3,3.7-10.1,5.5-17.4,5.5c-3.9,0-7.5-0.8-10.8-2.5c-3.2-1.6-6.1-3.9-8.8-6.9c-0.2-0.2-0.2-0.5,0-0.8L8.3,44.3z"/>
		<path class="st0" d="M50,62.7l8.9-56.3c0-0.3,0.3-0.5,0.6-0.5h14.2c0.4,0,0.7,0.3,0.6,0.7L71,27.4c-0.1,0.4,0.2,0.7,0.6,0.7h18.9
			c0.3,0,0.6-0.2,0.6-0.5l3.3-21.2c0-0.3,0.3-0.5,0.6-0.5h14.3c0.4,0,0.7,0.3,0.6,0.7L101,62.9c0,0.3-0.3,0.5-0.6,0.5H86.2
			c-0.4,0-0.7-0.3-0.6-0.7l3.4-22c0.1-0.4-0.2-0.7-0.6-0.7H69.6c-0.3,0-0.6,0.2-0.6,0.5L65.5,63c0,0.3-0.3,0.5-0.6,0.5H50.7
			C50.3,63.5,50,63.1,50,62.7z"/>
		<path class="st0" d="M144.2,65c-4.1,0-7.9-0.6-11.2-1.7c-3.4-1.1-6.4-2.8-9-5.1c-2.8-2.4-4.9-5.4-6.5-8.9
			c-1.5-3.5-2.3-7.3-2.3-11.3c0-4.3,0.7-8.3,2-12.1c1.3-3.7,3.3-7.1,5.9-10.2c3.1-3.6,6.8-6.4,11.2-8.3c4.4-1.9,9.2-2.9,14.4-2.9
			c8.7,0,15.7,2.5,21,7.5s8,11.5,8,19.4c0,4.3-0.7,8.3-2,12.1c-1.4,3.8-3.3,7.2-5.9,10.2c-3.2,3.7-6.9,6.5-11.3,8.4
			C154.2,64,149.4,65,144.2,65z M147.7,18.6c-4.7,0-8.6,1.7-11.8,5.1s-4.8,7.6-4.8,12.6c0,4.4,1.3,8,3.8,10.6c2.5,2.7,5.9,4,10.1,4
			c4.6,0,8.5-1.8,11.8-5.3c3.2-3.5,4.8-7.8,4.8-12.8c0-4.1-1.3-7.5-3.9-10.2C155.2,20,151.8,18.6,147.7,18.6z"/>
		<path class="st0" d="M182.8,62.7l9-56.3c0-0.3,0.3-0.5,0.6-0.5h15.3c4.4,0,7.7,0.2,9.9,0.5c2.2,0.4,4.1,1,5.7,1.8
			c2.9,1.5,5.1,3.5,6.6,6.1s2.2,5.7,2.2,9.3s-0.8,6.9-2.3,10c-1.6,3.1-3.7,5.4-6.4,7.1c-1.6,1-3.4,1.7-5.6,2.1
			c-2.2,0.4-5.5,0.6-10.1,0.6h-2.4h-3.6c-0.3,0-0.6,0.2-0.6,0.5l-3.1,19c0,0.3-0.3,0.5-0.6,0.5h-14
			C183.1,63.5,182.8,63.1,182.8,62.7z M203.3,30.4c-0.1,0.4,0.2,0.7,0.6,0.7h0.7c5,0,8.4-0.5,10.1-1.6c1.8-1,2.6-2.8,2.6-5.4
			c0-2.1-0.8-3.7-2.3-4.7c-1.5-1-3.9-1.5-7.1-1.5h-2.2c-0.3,0-0.6,0.2-0.6,0.5L203.3,30.4z"/>
		<path class="st0" d="M242.7,62.7l6.8-42.8c0.1-0.4-0.2-0.7-0.6-0.7h-11.4c-0.4,0-0.7-0.4-0.6-0.7l2-12.1c0.1-0.3,0.3-0.5,0.6-0.5
			h39.4c0.4,0,0.7,0.4,0.6,0.7l-2,12.1c-0.1,0.3-0.3,0.5-0.6,0.5h-11.2c-0.3,0-0.6,0.2-0.6,0.5l-6.8,43.2c0,0.3-0.3,0.5-0.6,0.5
			h-14.2C243,63.5,242.7,63.1,242.7,62.7z"/>
		<path class="st0" d="M296.8,50.6h16.3c0.4,0,0.7,0.3,0.6,0.7l-1.8,11.6c0,0.3-0.3,0.5-0.6,0.5h-31.9c-0.4,0-0.7-0.3-0.6-0.7
			l8.9-56.3c0-0.3,0.3-0.5,0.6-0.5h31.9c0.4,0,0.7,0.3,0.6,0.7l-1.9,12c0,0.3-0.3,0.5-0.6,0.5h-16.7c-0.3,0-0.6,0.2-0.6,0.5
			l-1.3,8.1c-0.1,0.4,0.2,0.7,0.6,0.7h15c0.4,0,0.7,0.3,0.6,0.7l-1.7,11.2c0,0.3-0.3,0.5-0.6,0.5h-15.5c-0.3,0-0.6,0.2-0.6,0.5
			l-1.3,8.3C296.1,50.3,296.4,50.6,296.8,50.6z"/>
		<path class="st0" d="M322.7,62.7l8.9-56.3c0-0.3,0.3-0.5,0.6-0.5h14.2c0.4,0,0.7,0.3,0.6,0.7L340.3,49c-0.1,0.4,0.2,0.7,0.6,0.7
			h17.6c0.4,0,0.7,0.3,0.6,0.7l-2,12.5c0,0.3-0.3,0.5-0.6,0.5h-33.2C322.9,63.5,322.6,63.1,322.7,62.7z"/>
		<path class="st0" d="M393.3,65c-4.1,0-7.9-0.6-11.2-1.7c-3.4-1.1-6.4-2.8-9-5.1c-2.8-2.4-4.9-5.4-6.5-8.9
			c-1.5-3.5-2.3-7.3-2.3-11.3c0-4.3,0.7-8.3,2-12.1c1.3-3.7,3.3-7.1,5.9-10.2c3.1-3.6,6.8-6.4,11.2-8.3c4.4-1.9,9.2-2.9,14.4-2.9
			c8.7,0,15.7,2.5,21,7.5s8,11.5,8,19.4c0,4.3-0.7,8.3-2,12.1c-1.4,3.8-3.3,7.2-5.9,10.2c-3.2,3.7-6.9,6.5-11.3,8.4
			C403.3,64,398.5,65,393.3,65z M396.8,18.6c-4.7,0-8.6,1.7-11.8,5.1c-3.2,3.4-4.8,7.6-4.8,12.6c0,4.4,1.3,8,3.8,10.6
			c2.5,2.7,5.9,4,10.1,4c4.6,0,8.5-1.8,11.8-5.3c3.2-3.5,4.8-7.8,4.8-12.8c0-4.1-1.3-7.5-3.9-10.2C404.2,20,400.9,18.6,396.8,18.6z"
			/>
	</g>
	<path class="st1" d="M275.4,84.4l1.8-11.5c0-0.3,0.3-0.5,0.6-0.5h86c0.8,0,0.9,1.2,0.1,1.3l-87.8,11.5
		C275.7,85.2,275.3,84.8,275.4,84.4z"/>
</g>
</svg>
