<svg id="Layer_1" data-name="Layer 1" xmlns="http://www.w3.org/2000/svg" viewBox="0 0 458 460"><defs><style>.cls-1{fill:#ffb612;}.cls-2{fill:#191919;}</style></defs><rect class="cls-1" x="3.49" y="6" width="451.01" height="448" rx="224"/><path class="cls-2" d="M166.28,243.07q14.49,15.59,27.64,22.68a56.55,56.55,0,0,0,27.18,7.09q11.66,0,18.59-5.67a18.38,18.38,0,0,0,6.93-15q0-12.61-28-27.26-2.69-1.41-4.25-2.21Q187.06,208.57,177,195.49t-10.08-31.82q0-34.18,23.08-55.93T249.46,86a102.74,102.74,0,0,1,36.94,6.77,117,117,0,0,1,33.48,20l-26.47,45.53Q281,147.6,270.73,142.4t-18.91-5.2q-9.45,0-15.75,5.44A16.9,16.9,0,0,0,229.76,156q0,9.77,23.64,21.9,8.34,4.25,12.91,6.93,24.27,13.38,33.72,27.33T309.48,247q0,37-25.68,59.16T214,328.3a97.46,97.46,0,0,1-43.32-9.85q-20.17-9.84-36.4-29.22Z"/><polygon class="cls-2" points="129.79 376 133.77 350.82 322.21 350.82 129.79 376"/></svg>